<?xml version="1.0" encoding="UTF-8"?>
<svg xmlns="http://www.w3.org/2000/svg" width="720" height="540" viewBox="270,340,720,540">
<title>LUX | CARS - Circular Symbol</title>

<g stroke="none">
<path fill="#FFFFFF" fill-rule="evenodd" d="M 373 531 L 384 522 L 403 486 L 427 455 L 457 427 L 483 409 L 486 411 L 493 403 L 528 387 L 571 375 L 600 371 L 644 371 L 687 378 L 719 388 L 751 403 L 779 421 L 783 427 L 799 437 L 832 472 L 862 523 L 872 533 L 861 501 L 843 470 L 825 447 L 776 402 L 712 372 L 646 358 L 600 358 L 561 364 L 517 378 L 473 401 L 446 421 L 414 454 L 386 497 Z"/>
<path fill="#FFFFFF" fill-rule="evenodd" d="M 874 707 L 863 716 L 844 751 L 822 780 L 792 809 L 769 826 L 712 854 L 675 864 L 643 868 L 594 867 L 560 861 L 520 848 L 487 831 L 456 809 L 426 780 L 407 756 L 383 714 L 374 708 L 384 734 L 408 776 L 442 813 L 471 836 L 518 860 L 553 872 L 598 880 L 635 881 L 673 877 L 712 867 L 759 847 L 804 815 L 838 779 L 854 753 Z M 615 690 L 615 708 L 620 708 L 621 707 L 621 690 Z"/>
</g>
</svg>
